# xmcd
#
# Track frame offsets:
#	182
#	13196
#	27591
#	41206
#	55510
#	70549
#	83830
#	97442
#	111985
#	127362
#	141931
#	155110
#	184163
#	221738
#	235617
#	248917
#	264159
#	276871
#
# Disc length: 3848 seconds
#
# Revision: 0
# Processed by: cddbd v1.5PL3 Copyright (c) Steve Scherf et al.
# Submitted via: dBpowerAMP V4.0
#
DISCID=130f0612
DTITLE=Bessie Smith - The Quintessence
DYEAR=1900
DGENRE=Blues
TTITLE0=Squeeze Me
TTITLE1=Money Blues
TTITLE2=Baby Doll
TTITLE3=Young Woman Blues
TTITLE4=Back Water Blues
TTITLE5=After You've Gone
TTITLE6=Alexander Ragtime Band
TTITLE7=Muddy Water
TTITLE8=There'll be a Hot Tim
TTITLE9=Trombone Cholly
TTITLE10=Foolish Man Blues
TTITLE11=Empty Bed Blues
TTITLE12=St Louis Blues
TTITLE13=Wasted Life Blues
TTITLE14=On Revival Day
TTITLE15=Shipwreck Blues
TTITLE16=Need a Little Sugar in my Bowl
TTITLE17=Take me for a Buggy Ride
EXTD=
EXTT0=
EXTT1=
EXTT2=
EXTT3=
EXTT4=
EXTT5=
EXTT6=
EXTT7=
EXTT8=
EXTT9=
EXTT10=
EXTT11=
EXTT12=
EXTT13=
EXTT14=
EXTT15=
EXTT16=
EXTT17=
PLAYORDER=
